<?xml version="1.0" encoding="UTF-8"?>
<svg width="46px" height="23px" viewBox="0 0 46 23" version="1.1" xmlns="http://www.w3.org/2000/svg" xmlns:xlink="http://www.w3.org/1999/xlink">
    <!-- Generator: Sketch 64 (93537) - https://sketch.com -->
    <title>desktop-new</title>
    <desc>Created with Sketch.</desc>
    <g id="desktop-new" stroke="none" stroke-width="1" fill="none" fill-rule="evenodd">
        <g id="Label-Copy-3">
            <rect id="Badge-BG" fill="#D0024E" x="0" y="0" width="46" height="19"/>
            <polygon id="Path-3" fill="#D0024E" points="11 19 11 23 15 19"/>
            <path d="M8.015,13 L8.015,8.01 L11.855,13 L12.815,13 L12.815,5.88 L11.605,5.88 L11.605,10.86 L7.775,5.88 L6.815,5.88 L6.815,13 L8.015,13 Z M16.565,13.08 C17.0716667,13.08 17.5183333,12.9733333 17.905,12.76 C18.2916667,12.5466667 18.59,12.2416667 18.8,11.845 C19.01,11.4483333 19.115,10.9833333 19.115,10.45 C19.115,9.91666667 19.01,9.45166667 18.8,9.055 C18.59,8.65833333 18.2916667,8.35333333 17.905,8.14 C17.5183333,7.92666667 17.0716667,7.82 16.565,7.82 C16.0516667,7.82 15.6,7.92666667 15.21,8.14 C14.82,8.35333333 14.52,8.65833333 14.31,9.055 C14.1,9.45166667 13.995,9.91666667 13.995,10.45 C13.995,10.9833333 14.1,11.4483333 14.31,11.845 C14.52,12.2416667 14.82,12.5466667 15.21,12.76 C15.6,12.9733333 16.0516667,13.08 16.565,13.08 Z M16.555,12.1 C16.135,12.1 15.8133333,11.9616667 15.59,11.685 C15.3666667,11.4083333 15.255,10.9966667 15.255,10.45 C15.255,9.91 15.3683333,9.49833333 15.595,9.215 C15.8216667,8.93166667 16.145,8.79 16.565,8.79 C16.9783333,8.79 17.2983333,8.93166667 17.525,9.215 C17.7516667,9.49833333 17.865,9.91 17.865,10.45 C17.865,10.9966667 17.7533333,11.4083333 17.53,11.685 C17.3066667,11.9616667 16.9816667,12.1 16.555,12.1 Z M22.675,13 L24.885,7.96 L23.645,7.96 L22.165,11.58 L20.715,7.96 L19.405,7.96 L21.585,13 L22.675,13 Z M26.845,6.89 L26.845,5.66 L25.455,5.66 L25.455,6.89 L26.845,6.89 Z M26.775,13 L26.775,7.95 L25.535,7.95 L25.535,13 L26.775,13 Z M30.265,13.07 C30.5783333,13.07 30.845,13.03 31.065,12.95 L31.065,12.95 L31.065,11.96 C30.885,12.0133333 30.7183333,12.04 30.565,12.04 C30.0116667,12.04 29.735,11.7433333 29.735,11.15 L29.735,11.15 L29.735,8.89 L31.075,8.89 L31.075,7.95 L29.735,7.95 L29.735,6.3 L28.485,6.72 L28.485,7.95 L27.515,7.95 L27.515,8.89 L28.485,8.89 L28.485,11.21 C28.485,11.81 28.6383333,12.27 28.945,12.59 C29.2516667,12.91 29.6916667,13.07 30.265,13.07 Z M34.745,7.3 L33.745,5.24 L32.465,5.24 L33.935,7.3 L34.745,7.3 Z M33.895,13.08 C34.2616667,13.08 34.5883333,13.0016667 34.875,12.845 C35.1616667,12.6883333 35.3816667,12.47 35.535,12.19 L35.535,12.19 L35.535,13 L36.765,13 L36.765,7.95 L35.535,7.95 L35.535,8.71 C35.3816667,8.43 35.1616667,8.21166667 34.875,8.055 C34.5883333,7.89833333 34.2616667,7.82 33.895,7.82 C33.4616667,7.82 33.075,7.93166667 32.735,8.155 C32.395,8.37833333 32.13,8.69166667 31.94,9.095 C31.75,9.49833333 31.655,9.96 31.655,10.48 C31.655,11 31.7483333,11.4566667 31.935,11.85 C32.1216667,12.2433333 32.385,12.5466667 32.725,12.76 C33.065,12.9733333 33.455,13.08 33.895,13.08 Z M34.235,12.1 C33.815,12.1 33.49,11.96 33.26,11.68 C33.03,11.4 32.915,11 32.915,10.48 C32.915,9.95333333 33.03,9.54166667 33.26,9.245 C33.49,8.94833333 33.8116667,8.8 34.225,8.8 C34.645,8.8 34.9683333,8.94333333 35.195,9.23 C35.4216667,9.51666667 35.535,9.92666667 35.535,10.46 C35.535,10.98 35.4216667,11.3833333 35.195,11.67 C34.9683333,11.9566667 34.6483333,12.1 34.235,12.1 Z M39.075,10.86 L39.465,5.88 L37.915,5.87 L38.315,10.86 L39.075,10.86 Z M39.395,13 L39.395,11.6 L37.995,11.6 L37.995,13 L39.395,13 Z" id="Novità!" fill="#FFFFFF" fill-rule="nonzero"/>
        </g>
    </g>
</svg>